<?xml version="1.0" encoding="utf-8"?>
<!-- Generator: Adobe Illustrator 22.1.0, SVG Export Plug-In . SVG Version: 6.00 Build 0)  -->
<svg version="1.1" id="Layer_1" xmlns="http://www.w3.org/2000/svg" xmlns:xlink="http://www.w3.org/1999/xlink" x="0px" y="0px"
	 viewBox="0 0 869 270.6" style="enable-background:new 0 0 869 270.6;" xml:space="preserve">
<style type="text/css">
	.st0{fill:#587796;}
</style>
<title>tipl</title>
<g id="Layer_2_1_">
	<g id="Layer_1-2">
		<polygon class="st0" points="192,253.6 99.8,253.6 99.8,99.6 192,164.9 		"/>
		<path class="st0" d="M221.7,107.9c-25,0.1-49.7-4.8-72.8-14.3c-62.4-26-121.7-6-134.4-1.1L6.2,80.7c3.4-1.5,72.5-31.5,148.1,0
			c61.5,25.6,119.7,6.7,133.8,1.4l8.3,11.8C272.7,103.3,247.3,108,221.7,107.9z"/>
		<path class="st0" d="M221.7,78.9c-25,0.1-49.7-4.8-72.8-14.3c-62.6-26-122-5.9-134.6-1.1L6.2,51.9l0,0c2.9-1.3,72.2-31.7,148.2,0
			c62.2,25.9,121,6.3,134.4,1.2l8.3,11.8C273.1,74.4,247.5,79.1,221.7,78.9z"/>
		<path class="st0" d="M221.6,49.9c-25,0.1-49.7-4.7-72.8-14.2C86.3,9.6,26.9,29.6,14.2,34.5L6,22.7c2.9-1.3,72.2-31.7,148.2,0
			c62.9,26.2,122.3,5.9,134.7,1l7.9,11.2l0.3,0.6C273,45.2,247.4,50.1,221.6,49.9z"/>
		<path class="st0" d="M367.8,99.4h-11.9v36.2h-10V99.4h-12v-9.1h33.9L367.8,99.4z"/>
		<path class="st0" d="M396.7,120.6c0,9.6-7.1,15.9-16.8,15.9c-9.7,0-16.8-6.3-16.8-15.9s7.1-15.9,16.8-15.9
			C389.6,104.7,396.7,111,396.7,120.6z M372.9,120.6c0,3.9,3.1,7,7,7s7-3.1,7-7s-3.1-7-7-7c0,0,0,0,0,0c-3.7-0.2-6.9,2.7-7,6.4
			C372.9,120.2,372.9,120.4,372.9,120.6L372.9,120.6z"/>
		<path class="st0" d="M398.1,133.4l3.6-8.1c3.2,2,6.8,3.2,10.6,3.4c1.7,0,2.7-0.4,2.7-1.4c0-1-1.2-1.4-2.1-1.7l-5.3-2.1
			c-5-1.9-7.3-4.8-7.3-9.3c0-6.1,4.2-9.7,12.8-9.7c3.7,0,7.3,0.6,10.8,1.8l-2.7,7.9c-2.8-1.3-5.8-2-8.9-2.2c-1.9,0-2.5,0.5-2.5,1.3
			s0.8,1.3,2.3,1.9l5.2,1.9c4.5,1.7,7.2,4.1,7.2,9.1c0,7.1-5.3,10.1-13.2,10.1C406.8,136.4,402.3,135.4,398.1,133.4z"/>
		<path class="st0" d="M438.4,109.6h0.1c2.1-3.2,5.7-5.1,9.6-5c6.6,0,11.3,3.8,11.3,12.4v18.5h-9.8v-15.8c0-4.5-1.9-6.5-5.4-6.5
			c-3.6,0-5.8,1.9-5.8,7.2v14.9h-9.8V90.2h9.8L438.4,109.6L438.4,109.6z"/>
		<path class="st0" d="M495.7,117v18.5H486v-15.8c0-4.5-1.9-6.5-5.5-6.5c-3.6,0-5.8,1.9-5.8,7.2v14.9H465v-29.9h9.6v4.5h0.1
			c2-3.5,5.7-5.6,9.8-5.5C491,104.7,495.7,108.5,495.7,117z"/>
		<path class="st0" d="M511.6,100.1h-10.5v-10h10.5V100.1z M501.4,105.6h9.8v29.9h-9.8V105.6z"/>
		<path class="st0" d="M566.2,105.6l-10.9,29.9h-8.3l-6.6-17.4l-6.5,17.4h-8.3l-11-29.9h9.7l5.6,17.4l6.1-17.4h9l6.1,17.4l5.6-17.4
			H566.2z"/>
		<path class="st0" d="M565.6,120.6c0-10.5,6.4-15.9,14.2-15.9c3.9-0.3,7.7,1.6,9.8,5h0.1v-4h9.8v29.9h-9.8v-4.1h-0.1
			c-2.1,3.3-5.8,5.3-9.8,5C572.1,136.5,565.6,131.1,565.6,120.6z M589.5,120.6c-0.1-3.8-3.2-6.8-7-6.8c-3.8,0.1-6.8,3.2-6.8,7
			c0.1,3.8,3.1,6.8,6.9,6.8c3.7,0.2,6.8-2.6,6.9-6.3C589.5,121,589.5,120.8,589.5,120.6z"/>
		<path class="st0" d="M615,135.5h-9.8V90.2h9.8V135.5z"/>
		<path class="st0" d="M347.6,198.2h-10v-45.3h10V198.2z"/>
		<path class="st0" d="M385.2,179.7v18.5h-9.7v-15.8c0-4.5-1.9-6.5-5.5-6.5c-3.6,0-5.8,1.9-5.8,7.3v14.9h-9.8v-29.9h9.6v4.5h0.1
			c2-3.5,5.7-5.6,9.8-5.5C380.6,167.3,385.2,171.1,385.2,179.7z"/>
		<path class="st0" d="M389.3,183.2c0-10.5,6.4-15.9,14.2-15.9c3.9-0.3,7.7,1.6,9.8,5h0.1v-19.4h9.8v45.3h-9.8v-4.1h-0.1
			c-2.1,3.3-5.8,5.3-9.8,5C395.7,199.2,389.3,193.7,389.3,183.2z M413.1,183.2c-0.1-3.8-3.2-6.8-7-6.8c-3.8,0.1-6.8,3.2-6.8,7
			c0.1,3.8,3.1,6.8,6.9,6.8c3.7,0.2,6.8-2.7,6.9-6.3C413.1,183.7,413.1,183.5,413.1,183.2L413.1,183.2L413.1,183.2z"/>
		<path class="st0" d="M428.8,186.7v-18.4h10.2v16.3c0,4.3,2,6,5,6c3.4,0,5.6-2.5,5.6-7.9v-14.4h9.8v29.9h-9.6v-4.6h-0.1
			c-1.8,3.5-5.5,5.6-9.4,5.6C433.8,199.2,428.8,195.3,428.8,186.7z"/>
		<path class="st0" d="M462.9,196.1l3.7-8c3.2,2,6.8,3.2,10.6,3.4c1.7,0,2.7-0.4,2.7-1.3s-1.1-1.4-2.1-1.7l-5.2-2.1
			c-5-1.9-7.3-4.8-7.3-9.2c0-6.1,4.2-9.7,12.8-9.7c3.7,0,7.3,0.6,10.8,1.8l-2.7,7.9c-2.8-1.3-5.8-2-8.9-2.2c-1.9,0-2.5,0.5-2.5,1.3
			s0.8,1.3,2.3,1.9l5.2,1.9c4.5,1.7,7.2,4.1,7.2,9.1c0,7.1-5.2,10.1-13.2,10.1C471.7,199.1,467.1,198.1,462.9,196.1z"/>
		<path class="st0" d="M506.5,176.4v9c0,2.8,0.7,3.7,3.2,3.7h1.1v9.1h-4.1c-6.1,0-10-2.9-10-10.1v-11.6H491v-8.1h5.8v-12h9.8v12h6.1
			v8.1L506.5,176.4L506.5,176.4z"/>
		<path class="st0" d="M536.5,177.2h-0.8c-6.5,0-9.2,2.5-9.2,10v11h-9.8v-29.9h9.6v6.1h0.1c1.2-4.4,5.4-7.3,10-7h0.2L536.5,177.2z"
			/>
		<path class="st0" d="M550.3,162.8h-10.5v-10h10.5V162.8z M540.2,168.3h9.8v29.9h-9.8V168.3z"/>
		<path class="st0" d="M584.9,183.4v2.2h-21.4c0.6,3.8,3.6,5.4,7.6,5.4c3.1-0.1,6.1-1,8.7-2.7l3.6,7.5c-3.7,2.3-8,3.5-12.4,3.5
			c-10,0-16.7-6.3-16.7-15.8c0-10,6.6-16,15.8-16C579.2,167.5,584.9,172.6,584.9,183.4z M563.5,179.8h11.9c0.1-3-2.3-5.4-5.2-5.5
			c-0.1,0-0.3,0-0.4,0c-3.1-0.3-5.9,2-6.2,5.1C563.5,179.5,563.5,179.7,563.5,179.8z"/>
		<path class="st0" d="M586.1,196.1l3.7-8c3.2,2,6.8,3.2,10.6,3.4c1.8,0,2.7-0.4,2.7-1.3s-1.2-1.4-2.1-1.7l-5.2-2.1
			c-5-1.9-7.3-4.8-7.3-9.2c0-6.1,4.2-9.7,12.8-9.7c3.7,0,7.3,0.6,10.8,1.8l-2.7,7.9c-2.8-1.3-5.8-2-8.9-2.2c-1.9,0-2.5,0.5-2.5,1.3
			s0.8,1.3,2.3,1.9l5.2,1.9c4.5,1.7,7.3,4.1,7.3,9.1c0,7.1-5.3,10.1-13.2,10.1C594.9,199.1,590.3,198.1,586.1,196.1z"/>
		<path class="st0" d="M667.4,167.4c0,8.9-5.2,15.3-16.7,15.3h-6.1v15.5h-10v-45.3h16C662.1,152.9,667.4,159.2,667.4,167.4z
			 M656.7,167.6c0-4-2.7-5.6-6.8-5.6h-5.3v11.6h5.3C654,173.6,656.7,171.6,656.7,167.6L656.7,167.6z"/>
		<path class="st0" d="M702.7,168.3l-12.4,29.9h-9.8L668,168.3h10.8l6.5,18.9l6.5-18.9H702.7z"/>
		<path class="st0" d="M719.3,176.4v9c0,2.8,0.7,3.7,3.2,3.7h1.1v9.1h-4.1c-6.1,0-10-2.9-10-10.1v-11.6h-5.8v-8.1h5.8v-12h9.8v12
			h6.1v8.1L719.3,176.4L719.3,176.4z"/>
		<path class="st0" d="M739.5,198.2h-10.4v-10.4h10.4V198.2z"/>
		<path class="st0" d="M863.5,198.2h-10.4v-10.4h10.4V198.2z"/>
		<path class="st0" d="M773.2,188.7h18.1v9.5h-28.1v-45.3h10L773.2,188.7z"/>
		<path class="st0" d="M806.6,176.4v9c0,2.8,0.7,3.7,3.2,3.7h1.1v9.1h-4.1c-6.1,0-10-2.9-10-10.1v-11.6H791v-8.1h5.8v-12h9.8v12h6.1
			v8.1L806.6,176.4L806.6,176.4z"/>
		<path class="st0" d="M814,183.2c0-10.5,6.4-15.9,14.2-15.9c3.9-0.3,7.7,1.6,9.8,5h0.1v-19.4h9.8v45.3h-9.8v-4.1H838
			c-2.1,3.3-5.9,5.3-9.8,5C820.5,199.2,814,193.7,814,183.2z M837.9,183.2c-0.1-3.8-3.2-6.8-7-6.8c-3.8,0.1-6.8,3.2-6.8,7
			c0.1,3.8,3.1,6.8,6.9,6.8c3.7,0.2,6.8-2.7,6.9-6.4C837.9,183.7,837.9,183.5,837.9,183.2L837.9,183.2z"/>
		<path class="st0" d="M368.2,254.3h-5.4l-4.2-18l0,0l-5.7,13.9h-3.7l-5.7-13.9l0,0l-4.3,18h-5.3l6.9-27.9h4l6.1,15.9l0,0l6.3-15.8
			h4L368.2,254.3z"/>
		<path class="st0" d="M398.4,240.2c0,7.9-4.5,14.8-13.9,14.8c-7.7,0.5-14.3-5.4-14.7-13c0-0.5,0-1,0-1.5c0-8.6,5.9-14.5,14.9-14.5
			c3.9-0.1,7.8,1.2,10.8,3.7l-3.4,4.4c-2.1-1.8-4.8-2.8-7.6-2.8c-5.1,0.3-9.1,4.7-8.7,9.9c0.3,4.8,4.2,8.6,8.9,8.8
			c4,0.4,7.6-2.4,8.2-6.4h-8v-4.7h13.4C398.4,239.1,398.4,239.6,398.4,240.2z"/>
		<path class="st0" d="M431.2,231.2h-7.6v23.2h-5.1v-23.2h-7.6v-4.7h20.3V231.2z"/>
		<path class="st0" d="M449.9,245.1c0.2,5.6-4.2,10.4-9.8,10.6c-5.6,0.2-10.4-4.2-10.6-9.8c-0.2-5.6,4.2-10.4,9.8-10.6
			c0.1,0,0.3,0,0.4,0c5.3-0.3,9.9,3.8,10.2,9.1C449.9,244.7,449.9,244.9,449.9,245.1z M434.5,245.1c0,2.8,2.3,5.1,5.2,5.1
			c2.8,0,5.1-2.3,5.1-5.2c0-2.8-2.3-5.1-5.1-5.1c-2.7-0.1-5.1,2-5.2,4.8C434.5,244.9,434.5,245,434.5,245.1z"/>
		<path class="st0" d="M452.1,253l2-4.1c1.9,1.2,4,1.8,6.2,1.9c1.5,0,2.3-0.4,2.3-1.3s-0.5-1.1-1.6-1.6l-3.3-1.4
			c-2.4-0.7-4.1-3-4.1-5.5c0-3.6,2.5-5.6,7.1-5.6c2.2,0,4.5,0.5,6.5,1.3l-1.6,4.1c-1.6-0.8-3.4-1.2-5.2-1.3c-1.4,0-1.9,0.4-1.9,1.1
			s0.5,1.1,1.7,1.7l3.3,1.4c2.4,0.6,4.1,2.9,4.1,5.4c0,4.1-3,5.9-7.5,5.9C457.3,255,454.5,254.3,452.1,253z"/>
		<path class="st0" d="M476.1,238.6L476.1,238.6c1.3-2.1,3.6-3.3,6-3.2c4,0,6.9,2.2,6.9,7.7v11.3h-5v-10.2c0-3-1.4-4.3-3.8-4.3
			s-4.3,1.5-4.3,5.5v9h-5v-27.9h5L476.1,238.6z"/>
		<path class="st0" d="M511.9,243v11.3h-5v-10.2c0-3-1.4-4.3-3.8-4.3c-2.4,0-4.3,1.5-4.3,5.5v9h-4.9v-18.4h4.9v2.8l0,0
			c1.2-2.2,3.5-3.5,6-3.4C508.9,235.3,511.9,237.6,511.9,243z"/>
		<path class="st0" d="M522.1,232.1h-5.6v-5.4h5.6V232.1z M516.8,235.9h5v18.4h-5V235.9z"/>
		<path class="st0" d="M554.9,235.9l-6.4,18.4h-4.3l-4.3-12l-4.2,12h-4.4l-6.4-18.4h5l3.7,12.1l4-12.1h4.6l4,12.1l3.5-12.1H554.9z"
			/>
		<path class="st0" d="M555.8,245.1c0-6.3,4-9.8,8.8-9.8c2.5-0.1,4.8,1.1,6.1,3.2l0,0V236h4.9v18.4H571V252l0,0
			c-1.3,2.1-3.7,3.3-6.1,3.2C559.8,254.9,555.8,251.4,555.8,245.1z M570.9,245.1c-0.1-2.7-2.4-4.9-5.2-4.8c-2.7,0.1-4.9,2.4-4.8,5.2
			c0.1,2.7,2.3,4.8,5,4.8c2.7,0.1,4.9-1.9,5.1-4.6C571,245.5,571,245.3,570.9,245.1L570.9,245.1z"/>
		<path class="st0" d="M585.7,254.3h-5v-27.9h5V254.3z"/>
		<path class="st0" d="M630.3,240.2c0,7.9-4.5,14.8-13.9,14.8c-7.7,0.5-14.3-5.4-14.7-13c0-0.5,0-1,0-1.5c0-8.6,5.8-14.5,14.9-14.5
			c3.9-0.1,7.8,1.2,10.8,3.7l-3.4,4.4c-2.1-1.8-4.8-2.8-7.6-2.8c-5.1,0.3-9.1,4.7-8.7,9.9c0.3,4.8,4.2,8.6,8.9,8.8
			c4,0.4,7.6-2.4,8.2-6.4h-8v-4.7h13.4C630.3,239.1,630.3,239.6,630.3,240.2z"/>
		<path class="st0" d="M645.3,240.6h-0.5c-3.9,0-5.8,1.7-5.8,6.2v7.5h-5v-18.4h4.8v4l0,0c0.7-2.7,3.3-4.6,6.1-4.5h0.2L645.3,240.6z"
			/>
		<path class="st0" d="M667,245.1c0.2,5.6-4.2,10.4-9.8,10.6c-5.6,0.2-10.4-4.2-10.6-9.8c-0.2-5.6,4.2-10.4,9.8-10.6
			c0.1,0,0.3,0,0.4,0c5.3-0.3,9.9,3.8,10.2,9.1C667,244.7,667,244.9,667,245.1z M651.6,245.1c0,2.9,2.3,5.2,5.2,5.2s5.2-2.3,5.2-5.2
			s-2.3-5.2-5.2-5.2l0,0c-2.7-0.1-5.1,2-5.2,4.8C651.6,244.9,651.6,245,651.6,245.1z"/>
		<path class="st0" d="M670.7,247.3v-11.3h5v10.4c0,2.9,1.3,4.1,3.5,4.1c2.1,0,4.1-1.6,4.1-5.6v-8.9h5v18.4h-4.8v-2.8l0,0
			c-1.1,2.2-3.3,3.5-5.7,3.4C673.8,254.9,670.7,252.7,670.7,247.3z"/>
		<path class="st0" d="M693.3,235.9h4.9v2.5l0,0c1.3-2.1,3.7-3.3,6.1-3.2c4.8,0,8.8,3.5,8.8,9.8s-4,9.8-8.8,9.8
			c-2.5,0.1-4.8-1.1-6.1-3.2l0,0v10.6h-4.9V235.9z M708.1,245.1c-0.1-2.7-2.4-4.9-5.2-4.8c-2.7,0.1-4.9,2.4-4.8,5.2
			c0.1,2.7,2.3,4.8,5,4.8c2.7,0.1,4.9-2,5-4.6C708.1,245.5,708.1,245.3,708.1,245.1L708.1,245.1z"/>
	</g>
</g>
</svg>
